<svg xmlns="http://www.w3.org/2000/svg" xmlns:xlink="http://www.w3.org/1999/xlink" width="150" zoomAndPan="magnify" viewBox="0 0 112.5 112.499997" height="150" preserveAspectRatio="xMidYMid meet" version="1.0"><defs><clipPath id="id1"><path d="M 17 34 L 95.625 34 L 95.625 42 L 17 42 Z M 17 34 " clip-rule="nonzero"/></clipPath><clipPath id="id2"><path d="M 17 17 L 95.625 17 L 95.625 112.003906 L 17 112.003906 Z M 17 17 " clip-rule="nonzero"/></clipPath></defs><path fill="rgb(88.62915%, 78.42865%, 67.449951%)" d="M 56.25 19.214844 L 33.863281 30.410156 L 33.863281 37.875 L 78.636719 37.875 L 78.636719 31.261719 L 56.25 19.214844 " fill-opacity="1" fill-rule="nonzero"/><path fill="rgb(80.778503%, 69.40918%, 58.428955%)" d="M 43.191406 36.007812 L 33.863281 30.410156 L 33.863281 41.605469 Z M 43.191406 36.007812 " fill-opacity="1" fill-rule="nonzero"/><path fill="rgb(75.689697%, 63.919067%, 54.119873%)" d="M 65.417969 24.148438 L 61.476562 22.03125 L 39.5625 33.835938 L 43.191406 36.007812 L 43.394531 36.007812 L 65.417969 24.148438 " fill-opacity="1" fill-rule="nonzero"/><path fill="rgb(39.99939%, 52.938843%, 58.81958%)" d="M 80.015625 8.792969 C 79.476562 6.804688 77.421875 5.632812 75.429688 6.171875 L 25.027344 19.878906 C 23.039062 20.425781 21.867188 22.472656 22.40625 24.464844 L 22.894531 26.265625 L 80.503906 10.59375 L 80.015625 8.792969 " fill-opacity="1" fill-rule="nonzero"/><path fill="rgb(51.368713%, 62.748718%, 66.668701%)" d="M 39.429688 15.964844 L 37.957031 10.566406 C 37.5625 9.121094 37.761719 7.613281 38.503906 6.316406 C 39.246094 5.019531 40.449219 4.085938 41.894531 3.695312 L 52.695312 0.757812 C 55.675781 -0.0507812 58.75 1.710938 59.566406 4.691406 L 61.03125 10.085938 L 57.429688 11.070312 L 55.957031 5.667969 C 55.6875 4.675781 54.652344 4.085938 53.671875 4.355469 L 42.871094 7.292969 C 41.878906 7.5625 41.289062 8.589844 41.558594 9.589844 L 43.03125 14.980469 L 39.429688 15.964844 " fill-opacity="1" fill-rule="nonzero"/><path fill="rgb(51.368713%, 62.748718%, 66.668701%)" d="M 26.398438 36.007812 L 26.398438 106.902344 C 26.398438 108.964844 28.066406 110.632812 30.128906 110.632812 L 82.371094 110.632812 C 84.433594 110.632812 86.101562 108.964844 86.101562 106.902344 L 86.101562 36.007812 L 26.398438 36.007812 " fill-opacity="1" fill-rule="nonzero"/><g clip-path="url(#id1)"><path fill="rgb(39.99939%, 52.938843%, 58.81958%)" d="M 95.429688 41.605469 L 91.699219 41.605469 L 91.699219 37.875 L 20.800781 37.875 L 20.800781 41.605469 L 17.070312 41.605469 L 17.070312 34.140625 L 95.429688 34.140625 L 95.429688 41.605469 " fill-opacity="1" fill-rule="nonzero"/></g><path fill="rgb(39.99939%, 52.938843%, 58.81958%)" d="M 43.191406 103.171875 L 39.457031 103.171875 L 39.457031 43.46875 L 43.191406 43.46875 L 43.191406 103.171875 " fill-opacity="1" fill-rule="nonzero"/><path fill="rgb(39.99939%, 52.938843%, 58.81958%)" d="M 58.117188 103.171875 L 54.382812 103.171875 L 54.382812 43.46875 L 58.117188 43.46875 L 58.117188 103.171875 " fill-opacity="1" fill-rule="nonzero"/><path fill="rgb(39.99939%, 52.938843%, 58.81958%)" d="M 73.042969 103.171875 L 69.308594 103.171875 L 69.308594 43.46875 L 73.042969 43.46875 L 73.042969 103.171875 " fill-opacity="1" fill-rule="nonzero"/><path fill="rgb(96.859741%, 82.348633%, 53.729248%)" d="M 69.308594 19.214844 L 65.578125 19.214844 L 65.578125 15.484375 L 69.308594 15.484375 L 69.308594 19.214844 " fill-opacity="1" fill-rule="nonzero"/><path fill="rgb(96.859741%, 82.348633%, 53.729248%)" d="M 76.773438 22.949219 L 73.042969 22.949219 L 73.042969 17.351562 L 76.773438 17.351562 L 76.773438 22.949219 " fill-opacity="1" fill-rule="nonzero"/><path fill="rgb(96.859741%, 82.348633%, 53.729248%)" d="M 84.234375 26.679688 L 80.503906 26.679688 L 80.503906 21.082031 L 84.234375 21.082031 L 84.234375 26.679688 " fill-opacity="1" fill-rule="nonzero"/><path fill="rgb(0%, 0%, 0%)" d="M 41.558594 9.589844 C 41.289062 8.589844 41.878906 7.5625 42.871094 7.292969 L 53.671875 4.355469 C 54.652344 4.085938 55.6875 4.675781 55.957031 5.667969 L 56.941406 9.269531 L 42.542969 13.1875 Z M 21.09375 26.753906 L 24.695312 25.777344 L 24.207031 23.976562 C 24.074219 23.496094 24.140625 22.992188 24.386719 22.554688 C 24.636719 22.125 25.035156 21.816406 25.515625 21.6875 L 75.917969 7.972656 C 76.910156 7.703125 77.945312 8.292969 78.214844 9.28125 L 78.703125 11.082031 L 82.304688 10.097656 L 81.816406 8.304688 C 81.421875 6.863281 80.488281 5.652344 79.191406 4.917969 C 77.894531 4.167969 76.386719 3.976562 74.941406 4.371094 L 60.542969 8.292969 L 59.566406 4.691406 C 58.75 1.710938 55.675781 -0.0507812 52.695312 0.757812 L 41.894531 3.695312 C 40.449219 4.085938 39.246094 5.019531 38.503906 6.316406 C 37.761719 7.613281 37.5625 9.121094 37.957031 10.566406 L 38.941406 14.164062 L 24.539062 18.085938 C 23.089844 18.472656 21.894531 19.40625 21.144531 20.703125 C 20.402344 22 20.210938 23.507812 20.605469 24.953125 L 21.09375 26.753906 " fill-opacity="1" fill-rule="nonzero"/><g clip-path="url(#id2)"><path fill="rgb(0%, 0%, 0%)" d="M 84.234375 106.902344 C 84.234375 107.929688 83.398438 108.769531 82.371094 108.769531 L 30.128906 108.769531 C 29.101562 108.769531 28.265625 107.929688 28.265625 106.902344 L 28.265625 37.875 L 84.234375 37.875 Z M 35.726562 33.703125 L 36.457031 34.140625 L 35.726562 34.140625 Z M 59.507812 23.09375 L 41.476562 32.800781 L 37.738281 30.5625 L 56.222656 21.324219 Z M 76.773438 34.140625 L 46.863281 34.140625 L 63.449219 25.207031 L 76.773438 32.378906 Z M 80.503906 34.140625 L 80.503906 30.148438 L 56.277344 17.109375 L 31.996094 29.257812 L 31.996094 34.140625 L 17.070312 34.140625 L 17.070312 41.605469 L 20.800781 41.605469 L 20.800781 37.875 L 24.535156 37.875 L 24.535156 106.902344 C 24.535156 109.992188 27.039062 112.5 30.128906 112.5 L 82.371094 112.5 C 85.460938 112.5 87.964844 109.992188 87.964844 106.902344 L 87.964844 37.875 L 91.699219 37.875 L 91.699219 41.605469 L 95.429688 41.605469 L 95.429688 34.140625 L 80.503906 34.140625 " fill-opacity="1" fill-rule="nonzero"/></g><path fill="rgb(0%, 0%, 0%)" d="M 43.191406 43.46875 L 39.457031 43.46875 L 39.457031 103.171875 L 43.191406 103.171875 L 43.191406 43.46875 " fill-opacity="1" fill-rule="nonzero"/><path fill="rgb(0%, 0%, 0%)" d="M 58.117188 43.46875 L 54.382812 43.46875 L 54.382812 103.171875 L 58.117188 103.171875 L 58.117188 43.46875 " fill-opacity="1" fill-rule="nonzero"/><path fill="rgb(0%, 0%, 0%)" d="M 73.042969 43.46875 L 69.308594 43.46875 L 69.308594 103.171875 L 73.042969 103.171875 L 73.042969 43.46875 " fill-opacity="1" fill-rule="nonzero"/><path fill="rgb(0%, 0%, 0%)" d="M 69.308594 19.214844 L 69.308594 15.484375 L 65.578125 15.484375 L 65.578125 19.214844 L 69.308594 19.214844 " fill-opacity="1" fill-rule="nonzero"/><path fill="rgb(0%, 0%, 0%)" d="M 73.042969 22.949219 L 76.773438 22.949219 L 76.773438 17.351562 L 73.042969 17.351562 L 73.042969 22.949219 " fill-opacity="1" fill-rule="nonzero"/><path fill="rgb(0%, 0%, 0%)" d="M 80.503906 26.679688 L 84.234375 26.679688 L 84.234375 21.082031 L 80.503906 21.082031 L 80.503906 26.679688 " fill-opacity="1" fill-rule="nonzero"/></svg>
