<svg xmlns="http://www.w3.org/2000/svg" xmlns:xlink="http://www.w3.org/1999/xlink" width="152" zoomAndPan="magnify" viewBox="0 0 114 113.999999" height="152" preserveAspectRatio="xMidYMid meet" version="1.0"><defs><clipPath id="id1"><path d="M 13.324219 0 L 100.324219 0 L 100.324219 114 L 13.324219 114 Z M 13.324219 0 " clip-rule="nonzero"/></clipPath></defs><g clip-path="url(#id1)"><path fill="#ffffff" d="M 56.824219 30.414062 C 44.484375 30.414062 32.859375 29.8125 24.085938 28.714844 C 21.457031 28.386719 19.199219 28.03125 17.257812 27.640625 L 18.996094 104.472656 C 18.996094 107.621094 35.933594 113.96875 56.824219 113.96875 C 77.714844 113.96875 94.648438 107.621094 94.648438 104.472656 L 96.390625 27.640625 C 94.449219 28.03125 92.191406 28.386719 89.558594 28.714844 C 80.789062 29.8125 69.160156 30.414062 56.824219 30.414062 Z M 34.128906 98.542969 C 33.546875 98.890625 32.914062 99.066406 32.238281 99.070312 C 31.734375 99.070312 31.253906 98.972656 30.789062 98.78125 C 30.324219 98.585938 29.917969 98.3125 29.5625 97.957031 C 29.207031 97.601562 28.933594 97.191406 28.742188 96.722656 C 28.550781 96.257812 28.453125 95.773438 28.453125 95.269531 L 28.453125 34.738281 C 28.453125 34.738281 29.652344 34.210938 30.34375 34.210938 C 30.847656 34.210938 31.328125 34.308594 31.792969 34.5 C 32.257812 34.695312 32.664062 34.96875 33.019531 35.324219 C 33.375 35.679688 33.648438 36.09375 33.839844 36.558594 C 34.03125 37.023438 34.128906 37.507812 34.128906 38.011719 Z M 51.148438 100.148438 C 50.566406 100.496094 49.9375 100.671875 49.257812 100.675781 C 48.757812 100.675781 48.273438 100.578125 47.8125 100.386719 C 47.347656 100.195312 46.9375 99.917969 46.582031 99.5625 C 46.230469 99.207031 45.957031 98.796875 45.765625 98.332031 C 45.570312 97.867188 45.476562 97.382812 45.476562 96.878906 L 45.476562 36.335938 C 46.058594 35.992188 46.691406 35.820312 47.367188 35.820312 C 47.867188 35.820312 48.351562 35.914062 48.816406 36.109375 C 49.277344 36.300781 49.6875 36.574219 50.042969 36.933594 C 50.398438 37.289062 50.671875 37.699219 50.863281 38.164062 C 51.054688 38.628906 51.148438 39.113281 51.148438 39.617188 Z M 70.0625 100.148438 C 69.480469 100.496094 68.847656 100.671875 68.171875 100.675781 C 67.671875 100.675781 67.1875 100.578125 66.722656 100.386719 C 66.261719 100.195312 65.851562 99.917969 65.496094 99.5625 C 65.140625 99.207031 64.867188 98.796875 64.675781 98.332031 C 64.484375 97.867188 64.390625 97.382812 64.390625 96.878906 L 64.390625 36.335938 C 64.972656 35.992188 65.601562 35.820312 66.28125 35.820312 C 66.78125 35.820312 67.265625 35.914062 67.726562 36.109375 C 68.191406 36.300781 68.601562 36.574219 68.953125 36.933594 C 69.308594 37.289062 69.582031 37.699219 69.773438 38.164062 C 69.96875 38.628906 70.0625 39.113281 70.0625 39.617188 Z M 87.085938 98.542969 C 86.5 98.890625 85.871094 99.066406 85.191406 99.070312 C 84.691406 99.070312 84.210938 98.972656 83.746094 98.78125 C 83.28125 98.585938 82.875 98.3125 82.519531 97.957031 C 82.164062 97.601562 81.890625 97.191406 81.699219 96.722656 C 81.507812 96.257812 81.410156 95.773438 81.410156 95.269531 L 81.410156 34.738281 C 81.992188 34.390625 82.625 34.214844 83.300781 34.210938 C 83.804688 34.210938 84.285156 34.308594 84.75 34.5 C 85.214844 34.695312 85.621094 34.96875 85.976562 35.324219 C 86.332031 35.679688 86.605469 36.09375 86.796875 36.558594 C 86.988281 37.023438 87.085938 37.507812 87.085938 38.011719 Z M 88.070312 21.117188 C 93.84375 20.363281 97.785156 19.488281 100.324219 18.304688 L 100.324219 20.921875 C 100.324219 24.066406 80.847656 26.617188 56.824219 26.617188 C 32.800781 26.617188 13.324219 24.066406 13.324219 20.921875 L 13.324219 18.304688 C 15.863281 19.488281 19.804688 20.363281 25.574219 21.117188 C 33.949219 22.214844 45.046875 22.820312 56.824219 22.820312 C 68.601562 22.820312 79.699219 22.214844 88.070312 21.117188 Z M 56.824219 19.019531 C 80.847656 19.019531 100.324219 16.46875 100.324219 13.324219 C 100.324219 10.691406 86.691406 8.476562 68.171875 7.824219 L 68.171875 1.929688 C 68.171875 1.679688 68.125 1.4375 68.027344 1.203125 C 67.929688 0.972656 67.796875 0.765625 67.617188 0.585938 C 67.441406 0.410156 67.234375 0.273438 67.003906 0.175781 C 66.773438 0.078125 66.53125 0.03125 66.28125 0.03125 L 47.367188 0.03125 C 47.117188 0.03125 46.875 0.078125 46.644531 0.175781 C 46.410156 0.273438 46.207031 0.410156 46.03125 0.585938 C 45.851562 0.765625 45.714844 0.972656 45.621094 1.203125 C 45.523438 1.4375 45.476562 1.679688 45.476562 1.929688 L 45.476562 7.824219 C 26.957031 8.476562 13.324219 10.691406 13.324219 13.324219 C 13.324219 16.46875 32.800781 19.019531 56.824219 19.019531 Z M 49.257812 3.828125 L 64.390625 3.828125 L 64.390625 7.714844 C 61.929688 7.660156 59.410156 7.628906 56.824219 7.628906 C 54.242188 7.628906 51.71875 7.65625 49.257812 7.714844 Z M 49.257812 3.828125 " fill-opacity="1" fill-rule="nonzero"/></g></svg>