<svg xmlns="http://www.w3.org/2000/svg" xmlns:xlink="http://www.w3.org/1999/xlink" width="152" zoomAndPan="magnify" viewBox="0 0 114 113.999999" height="152" preserveAspectRatio="xMidYMid meet" version="1.0"><path fill="#ffaf00" d="M 56.976562 17.828125 C 55.132812 17.828125 53.640625 16.332031 53.640625 14.488281 L 53.640625 3.359375 C 53.640625 1.515625 55.132812 0.0234375 56.976562 0.0234375 C 58.820312 0.0234375 60.316406 1.515625 60.316406 3.359375 L 60.316406 14.488281 C 60.316406 16.332031 58.820312 17.828125 56.976562 17.828125 Z M 56.976562 17.828125 " fill-opacity="1" fill-rule="nonzero"/><path fill="#f39b00" d="M 60.316406 14.488281 L 60.316406 3.359375 C 60.316406 1.515625 58.820312 0.0234375 56.976562 0.0234375 L 56.976562 17.828125 C 58.820312 17.828125 60.316406 16.332031 60.316406 14.488281 Z M 60.316406 14.488281 " fill-opacity="1" fill-rule="nonzero"/><path fill="#ffc5a6" d="M 113.945312 78.601562 C 114.007812 77.726562 113.730469 76.832031 113.09375 76.128906 C 107.847656 70.316406 100.382812 66.792969 92.070312 66.207031 C 83.78125 65.625 75.8125 68.050781 69.625 73.035156 L 67.152344 75.027344 L 50.746094 75.027344 C 46.890625 75.027344 43.539062 77.21875 41.863281 80.421875 L 14.917969 68.539062 C 11.617188 67.082031 7.84375 67.390625 4.824219 69.359375 C 1.804688 71.328125 0 74.65625 0 78.265625 C 0 82.007812 2.003906 85.515625 5.226562 87.417969 L 41.050781 108.566406 C 47.046875 112.109375 53.894531 113.976562 60.855469 113.976562 L 110.617188 113.976562 C 112.460938 113.976562 113.957031 112.484375 113.957031 110.640625 L 113.957031 78.8125 C 113.957031 78.742188 113.949219 78.671875 113.945312 78.601562 Z M 113.945312 78.601562 " fill-opacity="1" fill-rule="nonzero"/><path fill="#ffb48d" d="M 113.945312 78.601562 C 114.007812 77.726562 113.730469 76.832031 113.09375 76.128906 C 107.847656 70.316406 100.382812 66.792969 92.070312 66.207031 C 83.78125 65.625 75.8125 68.050781 69.625 73.035156 L 67.152344 75.027344 L 56.976562 75.027344 L 56.976562 113.785156 C 58.261719 113.914062 59.554688 113.976562 60.855469 113.976562 L 110.617188 113.976562 C 112.460938 113.976562 113.957031 112.484375 113.957031 110.640625 L 113.957031 78.8125 C 113.957031 78.742188 113.949219 78.671875 113.945312 78.601562 Z M 113.945312 78.601562 " fill-opacity="1" fill-rule="nonzero"/><path fill="#ffb48d" d="M 50.910156 95.058594 C 45.542969 95.058594 41.003906 90.898438 40.742188 85.539062 C 40.652344 83.6875 41.070312 81.941406 41.863281 80.421875 L 35.746094 77.722656 C 34.648438 79.96875 34.035156 82.492188 34.054688 85.15625 C 34.113281 94.371094 41.769531 101.738281 50.984375 101.738281 L 74.785156 101.738281 C 76.628906 101.738281 78.121094 100.242188 78.121094 98.398438 C 78.121094 96.554688 76.628906 95.058594 74.785156 95.058594 Z M 50.910156 95.058594 " fill-opacity="1" fill-rule="nonzero"/><path fill="#df9e7b" d="M 74.785156 95.058594 L 56.976562 95.058594 L 56.976562 101.738281 L 74.785156 101.738281 C 76.628906 101.738281 78.121094 100.242188 78.121094 98.398438 C 78.121094 96.554688 76.628906 95.058594 74.785156 95.058594 Z M 74.785156 95.058594 " fill-opacity="1" fill-rule="nonzero"/><path fill="#ffd55f" d="M 94.816406 55.664062 L 19.140625 55.664062 C 17.296875 55.664062 15.800781 54.171875 15.800781 52.324219 C 15.800781 29.621094 34.273438 11.152344 56.976562 11.152344 C 79.683594 11.152344 98.152344 29.621094 98.152344 52.324219 C 98.152344 54.171875 96.660156 55.664062 94.816406 55.664062 Z M 94.816406 55.664062 " fill-opacity="1" fill-rule="nonzero"/><path fill="#ffd55f" d="M 62.542969 6.699219 L 51.414062 6.699219 C 49.570312 6.699219 48.074219 5.203125 48.074219 3.359375 C 48.074219 1.515625 49.570312 0.0234375 51.414062 0.0234375 L 62.542969 0.0234375 C 64.386719 0.0234375 65.878906 1.515625 65.878906 3.359375 C 65.878906 5.203125 64.386719 6.699219 62.542969 6.699219 Z M 62.542969 6.699219 " fill-opacity="1" fill-rule="nonzero"/><path fill="#ffc32a" d="M 94.816406 55.664062 C 96.660156 55.664062 98.152344 54.171875 98.152344 52.324219 C 98.152344 29.621094 79.683594 11.152344 56.976562 11.152344 L 56.976562 55.664062 Z M 94.816406 55.664062 " fill-opacity="1" fill-rule="nonzero"/><path fill="#ffc32a" d="M 62.542969 0.0234375 L 56.976562 0.0234375 L 56.976562 6.699219 L 62.542969 6.699219 C 64.386719 6.699219 65.878906 5.203125 65.878906 3.359375 C 65.878906 1.515625 64.386719 0.0234375 62.542969 0.0234375 Z M 62.542969 0.0234375 " fill-opacity="1" fill-rule="nonzero"/><path fill="#d9ecfa" d="M 100.378906 55.664062 L 13.578125 55.664062 C 11.734375 55.664062 10.238281 54.171875 10.238281 52.324219 C 10.238281 50.480469 11.734375 48.988281 13.578125 48.988281 L 100.378906 48.988281 C 102.222656 48.988281 103.71875 50.480469 103.71875 52.324219 C 103.71875 54.171875 102.222656 55.664062 100.378906 55.664062 Z M 100.378906 55.664062 " fill-opacity="1" fill-rule="nonzero"/><path fill="#c1daee" d="M 100.378906 48.988281 L 56.976562 48.988281 L 56.976562 55.664062 L 100.378906 55.664062 C 102.222656 55.664062 103.71875 54.171875 103.71875 52.324219 C 103.71875 50.480469 102.222656 48.988281 100.378906 48.988281 Z M 100.378906 48.988281 " fill-opacity="1" fill-rule="nonzero"/></svg>