<svg xmlns="http://www.w3.org/2000/svg" xmlns:xlink="http://www.w3.org/1999/xlink" width="152" zoomAndPan="magnify" viewBox="0 0 114 113.999999" height="152" preserveAspectRatio="xMidYMid meet" version="1.0"><defs><clipPath id="id1"><path d="M 0 87 L 78 87 L 78 110.851562 L 0 110.851562 Z M 0 87 " clip-rule="nonzero"/></clipPath><clipPath id="id2"><path d="M 15 2.851562 L 99 2.851562 L 99 50 L 15 50 Z M 15 2.851562 " clip-rule="nonzero"/></clipPath></defs><g clip-path="url(#id1)"><path fill="#ffffff" d="M 68.617188 89.058594 L 55.894531 98.710938 C 55.617188 98.851562 55.339844 98.988281 55.0625 99.125 C 54.789062 99.265625 54.371094 99.265625 54.09375 99.265625 L 36.117188 99.265625 C 34.59375 99.265625 33.351562 98.023438 33.351562 96.503906 C 33.351562 95.675781 33.625 94.988281 34.179688 94.574219 C 34.734375 94.023438 35.425781 93.746094 36.117188 93.746094 L 50.914062 93.746094 C 50.5 92.644531 49.945312 91.816406 49.117188 90.988281 C 47.59375 89.46875 45.660156 88.644531 43.585938 88.644531 L 2.230469 88.503906 C 1.402344 88.503906 0.710938 89.195312 0.710938 90.023438 L 0.710938 103.816406 C 0.710938 104.644531 1.402344 105.332031 2.230469 105.332031 L 10.945312 105.332031 C 11.914062 105.332031 12.742188 105.46875 13.710938 105.882812 L 24.914062 110.574219 C 25.050781 110.574219 25.328125 110.710938 25.464844 110.710938 L 49.945312 110.851562 C 50.222656 110.851562 50.636719 110.710938 50.914062 110.574219 L 77.609375 88.644531 C 74.839844 86.988281 71.246094 86.988281 68.617188 89.058594 Z M 68.617188 89.058594 " fill-opacity="1" fill-rule="nonzero"/></g><g clip-path="url(#id2)"><path fill="#ffffff" d="M 65.160156 9.195312 L 65.160156 8.367188 C 65.160156 5.746094 63.363281 3.675781 61.011719 2.988281 C 60.597656 2.851562 60.179688 2.851562 59.628906 2.851562 L 54.09375 2.851562 C 53.679688 2.851562 53.128906 2.988281 52.710938 2.988281 C 50.363281 3.539062 48.5625 5.746094 48.5625 8.367188 L 48.5625 9.195312 C 29.617188 13.058594 15.371094 29.746094 15.371094 49.746094 L 98.351562 49.746094 C 98.351562 29.746094 84.109375 13.058594 65.160156 9.195312 Z M 86.320312 42.023438 C 86.183594 42.023438 86.042969 42.023438 85.90625 42.023438 C 84.523438 42.023438 83.417969 41.058594 83.140625 39.675781 C 82.863281 37.609375 81.894531 35.402344 80.648438 33.195312 C 79.542969 31.402344 78.160156 29.609375 76.5 27.953125 C 75.808594 27.265625 75.117188 26.710938 74.425781 26.023438 C 72.351562 24.367188 70 22.988281 67.789062 22.160156 C 66.40625 21.609375 65.574219 20.089844 66.128906 18.574219 C 66.679688 17.195312 68.203125 16.367188 69.722656 16.917969 C 73.457031 18.296875 77.191406 20.78125 80.375 23.953125 C 84.800781 28.367188 87.84375 33.746094 88.535156 38.710938 C 88.808594 40.367188 87.84375 41.746094 86.320312 42.023438 Z M 86.320312 42.023438 " fill-opacity="1" fill-rule="nonzero"/></g><path fill="#ffffff" d="M 110.109375 55.265625 L 3.613281 55.265625 C 1.679688 55.265625 0.15625 56.78125 0.15625 58.710938 C 0.15625 60.644531 1.679688 62.160156 3.613281 62.160156 L 4.445312 62.160156 C 6.933594 62.160156 9.285156 63.265625 10.945312 65.195312 L 13.15625 67.953125 C 13.710938 68.644531 14.539062 69.058594 15.371094 69.058594 L 98.628906 69.058594 C 99.460938 69.058594 100.289062 68.644531 100.84375 67.953125 L 103.054688 65.195312 C 104.578125 63.265625 107.066406 62.160156 109.554688 62.160156 L 110.386719 62.160156 C 112.320312 62.160156 113.84375 60.644531 113.84375 58.710938 C 113.84375 56.78125 112.046875 55.265625 110.109375 55.265625 Z M 110.109375 55.265625 " fill-opacity="1" fill-rule="nonzero"/></svg>