<svg xmlns="http://www.w3.org/2000/svg" xmlns:xlink="http://www.w3.org/1999/xlink" width="152" zoomAndPan="magnify" viewBox="0 0 114 113.999999" height="152" preserveAspectRatio="xMidYMid meet" version="1.0"><defs><clipPath id="id1"><path d="M 1.304688 19 L 95 19 L 95 112.5 L 1.304688 112.5 Z M 1.304688 19 " clip-rule="nonzero"/></clipPath><clipPath id="id2"><path d="M 86 1 L 113.054688 1 L 113.054688 28 L 86 28 Z M 86 1 " clip-rule="nonzero"/></clipPath></defs><g clip-path="url(#id1)"><path fill="#ffffff" d="M 89.769531 56.816406 C 87.195312 56.816406 85.113281 58.894531 85.113281 61.457031 L 85.113281 98.578125 C 85.113281 101.136719 83.027344 103.21875 80.457031 103.21875 L 15.273438 103.21875 C 12.703125 103.21875 10.617188 101.136719 10.617188 98.578125 L 10.617188 33.613281 C 10.617188 31.058594 12.703125 28.972656 15.273438 28.972656 L 52.523438 28.972656 C 55.097656 28.972656 57.179688 26.894531 57.179688 24.332031 C 57.179688 21.769531 55.097656 19.691406 52.523438 19.691406 L 15.273438 19.691406 C 7.574219 19.691406 1.304688 25.9375 1.304688 33.613281 L 1.304688 98.578125 C 1.304688 106.253906 7.574219 112.5 15.273438 112.5 L 80.457031 112.5 C 88.160156 112.5 94.425781 106.253906 94.425781 98.578125 L 94.425781 61.457031 C 94.425781 58.890625 92.34375 56.816406 89.769531 56.816406 Z M 89.769531 56.816406 " fill-opacity="1" fill-rule="nonzero"/></g><path fill="#ffffff" d="M 44.960938 52.589844 C 44.632812 52.914062 44.417969 53.328125 44.324219 53.769531 L 41.03125 70.179688 C 40.878906 70.941406 41.121094 71.722656 41.667969 72.277344 C 42.109375 72.71875 42.707031 72.953125 43.316406 72.953125 C 43.464844 72.953125 43.621094 72.941406 43.773438 72.910156 L 60.234375 69.628906 C 60.6875 69.535156 61.101562 69.316406 61.425781 68.992188 L 98.261719 32.277344 L 81.804688 15.875 Z M 44.960938 52.589844 " fill-opacity="1" fill-rule="nonzero"/><g clip-path="url(#id2)"><path fill="#ffffff" d="M 109.640625 4.527344 C 105.101562 0.00390625 97.71875 0.00390625 93.183594 4.527344 L 86.738281 10.949219 L 103.199219 27.351562 L 109.640625 20.933594 C 111.839844 18.746094 113.050781 15.832031 113.050781 12.730469 C 113.050781 9.632812 111.839844 6.71875 109.640625 4.527344 Z M 109.640625 4.527344 " fill-opacity="1" fill-rule="nonzero"/></g></svg>