<svg xmlns="http://www.w3.org/2000/svg" xmlns:xlink="http://www.w3.org/1999/xlink" width="150" zoomAndPan="magnify" viewBox="0 0 112.5 112.499997" height="150" preserveAspectRatio="xMidYMid meet" version="1.0"><defs><clipPath id="id1"><path d="M 0 19 L 94 19 L 94 112.003906 L 0 112.003906 Z M 0 19 " clip-rule="nonzero"/></clipPath><clipPath id="id2"><path d="M 85 1 L 111.75 1 L 111.75 28 L 85 28 Z M 85 1 " clip-rule="nonzero"/></clipPath><clipPath id="id3"><path d="M 4 56 L 94 56 L 94 112.003906 L 4 112.003906 Z M 4 56 " clip-rule="nonzero"/></clipPath><clipPath id="id4"><path d="M 93 4 L 111.75 4 L 111.75 28 L 93 28 Z M 93 4 " clip-rule="nonzero"/></clipPath></defs><g clip-path="url(#id1)"><path fill="rgb(37.649536%, 49.01886%, 54.508972%)" d="M 79.15625 112.5 L 13.972656 112.5 C 6.269531 112.5 0.00390625 106.253906 0.00390625 98.578125 L 0.00390625 33.613281 C 0.00390625 25.9375 6.269531 19.691406 13.972656 19.691406 L 51.21875 19.691406 C 53.792969 19.691406 55.875 21.769531 55.875 24.332031 C 55.875 26.894531 53.792969 28.972656 51.21875 28.972656 L 13.972656 28.972656 C 11.402344 28.972656 9.316406 31.058594 9.316406 33.613281 L 9.316406 98.578125 C 9.316406 101.136719 11.402344 103.21875 13.972656 103.21875 L 79.15625 103.21875 C 81.726562 103.21875 83.8125 101.136719 83.8125 98.578125 L 83.8125 61.457031 C 83.8125 58.894531 85.890625 56.816406 88.46875 56.816406 C 91.042969 56.816406 93.121094 58.894531 93.121094 61.457031 L 93.121094 98.578125 C 93.121094 106.253906 86.855469 112.5 79.15625 112.5 Z M 79.15625 112.5 " fill-opacity="1" fill-rule="nonzero"/></g><path fill="rgb(25.878906%, 64.709473%, 96.078491%)" d="M 80.496094 15.875 L 43.65625 52.589844 C 43.332031 52.914062 43.113281 53.328125 43.019531 53.769531 L 39.726562 70.179688 C 39.574219 70.941406 39.8125 71.730469 40.367188 72.277344 C 40.808594 72.71875 41.40625 72.953125 42.015625 72.953125 L 42.472656 72.910156 L 58.929688 69.628906 C 59.386719 69.539062 59.796875 69.316406 60.121094 68.992188 L 96.960938 32.277344 Z M 80.496094 15.875 " fill-opacity="1" fill-rule="nonzero"/><g clip-path="url(#id2)"><path fill="rgb(25.878906%, 64.709473%, 96.078491%)" d="M 108.339844 4.527344 C 103.800781 0.00390625 96.414062 0.00390625 91.878906 4.527344 L 85.4375 10.949219 L 101.894531 27.351562 L 108.339844 20.933594 C 110.535156 18.746094 111.746094 15.832031 111.746094 12.730469 C 111.746094 9.632812 110.535156 6.71875 108.339844 4.527344 Z M 108.339844 4.527344 " fill-opacity="1" fill-rule="nonzero"/></g><g clip-path="url(#id3)"><path fill="rgb(32.939148%, 42.749023%, 47.44873%)" d="M 88.46875 56.816406 C 85.890625 56.816406 83.8125 58.894531 83.8125 61.457031 L 83.8125 98.578125 C 83.8125 101.136719 81.726562 103.21875 79.15625 103.21875 L 13.972656 103.21875 C 12.6875 103.21875 11.523438 102.699219 10.679688 101.859375 L 4.101562 108.417969 C 6.628906 110.941406 10.121094 112.5 13.972656 112.5 L 79.15625 112.5 C 86.855469 112.5 93.121094 106.253906 93.121094 98.578125 L 93.121094 61.457031 C 93.121094 58.890625 91.042969 56.816406 88.46875 56.816406 Z M 88.46875 56.816406 " fill-opacity="1" fill-rule="nonzero"/></g><path fill="rgb(22.349548%, 56.469727%, 83.529663%)" d="M 88.726562 24.074219 L 40.367188 72.273438 C 40.808594 72.714844 41.40625 72.949219 42.015625 72.949219 L 42.472656 72.902344 L 58.929688 69.621094 C 59.386719 69.535156 59.796875 69.3125 60.121094 68.988281 L 96.960938 32.273438 Z M 88.726562 24.074219 " fill-opacity="1" fill-rule="nonzero"/><g clip-path="url(#id4)"><path fill="rgb(22.349548%, 56.469727%, 83.529663%)" d="M 108.339844 4.527344 L 93.667969 19.148438 L 101.898438 27.351562 L 108.34375 20.933594 C 110.535156 18.746094 111.746094 15.832031 111.746094 12.730469 C 111.746094 9.632812 110.535156 6.71875 108.339844 4.527344 Z M 108.339844 4.527344 " fill-opacity="1" fill-rule="nonzero"/></g></svg>
